<?xml version="1.0" encoding="UTF-8" standalone="no"?>
<svg
   xmlns:dc="http://purl.org/dc/elements/1.1/"
   xmlns:cc="http://creativecommons.org/ns#"
   xmlns:rdf="http://www.w3.org/1999/02/22-rdf-syntax-ns#"
   xmlns:svg="http://www.w3.org/2000/svg"
   xmlns="http://www.w3.org/2000/svg"
   id="svg23"
   viewBox="0 0 7409683.3 937367.93"
   style="clip-rule:evenodd;fill-rule:evenodd;image-rendering:optimizeQuality;shape-rendering:geometricPrecision;text-rendering:geometricPrecision"
   version="1.1"
   height="10.791176mm"
   width="85.301819mm"
   xml:space="preserve"><metadata
   id="metadata27"><rdf:RDF><cc:Work
       rdf:about=""><dc:format>image/svg+xml</dc:format><dc:type
         rdf:resource="http://purl.org/dc/dcmitype/StillImage" /></cc:Work></rdf:RDF></metadata>
 <defs
   id="defs4">
  <style
   id="style2"
   type="text/css">
   <![CDATA[
    .fil1 {fill:black;fill-rule:nonzero}
    .fil0 {fill:#003399;fill-rule:nonzero}
   ]]>
  </style>
 </defs>
 <g
   transform="translate(1,-1)"
   id="Слой_x0020_1">
  <metadata
   id="CorelCorpID_0Corel-Layer" />
  <path
   style="fill:#003399;fill-rule:nonzero"
   id="path7"
   d="m 1582451,260358 c -117223,-13021 -225430,-13021 -342662,0 -35067,4013 -60110,29056 -68128,63124 -14029,66130 -14029,93179 0,160308 7010,32062 30055,54108 61118,62117 l 250482,60119 c 8018,2007 14029,9017 15028,17034 3006,17034 4013,29056 999,47089 -999,9017 -8009,16035 -18033,17034 -95177,8018 -183353,7010 -279538,-4004 l -12022,109206 c 117223,13021 225439,13021 342662,0 35067,-4004 60110,-29056 68128,-63124 14029,-67129 14029,-94178 0,-160308 -7010,-32062 -29056,-54099 -61118,-62117 l -250482,-61118 c -8018,-2007 -14029,-8018 -15028,-16035 -3006,-18033 -4004,-30055 -999,-47089 999,-9017 8009,-16026 18033,-17034 95186,-9017 183353,-7010 279538,4013 z"
   class="fil0" />
  <path
   style="fill:#003399;fill-rule:nonzero"
   d="m 1768809,259359 c -37074,4004 -65131,33061 -68136,70134 -12022,140268 -12022,252489 0,392757 3006,37074 31063,66130 68136,70134 106200,13021 187358,13021 293558,0 37074,-4004 65131,-33061 68136,-70134 12022,-140268 12022,-252489 0,-392757 -3006,-37074 -31063,-66130 -68136,-70134 -105201,-13021 -188357,-13021 -293558,0 z m 38073,123234 c 999,-10015 8018,-18033 18033,-19032 63124,-6011 118231,-6011 181347,0 10024,999 17034,9017 18033,19032 7019,99190 7019,187366 0,286557 -999,10015 -8009,18033 -18033,19032 -62117,5012 -118222,5012 -181347,0 -10015,-999 -17034,-9017 -18033,-19032 -7019,-99190 -7019,-187366 0,-286557 z"
   class="fil0"
   id="1" />
  <path
   style="fill:#003399;fill-rule:nonzero"
   d="m 2239718,259359 v 457879 c 0,39080 30055,70134 69127,74147 109215,13021 183353,13021 292568,0 39072,-4013 69135,-35067 69135,-74147 V 259359 h -110213 v 407785 c 0,11023 -8018,19041 -18033,20040 -62125,6011 -112220,6011 -174337,0 -10024,-999 -18042,-9017 -18042,-20040 V 259359 Z"
   class="fil0"
   id="2" />
  <path
   style="fill:#003399;fill-rule:nonzero"
   d="m 3102376,259359 c -101197,-11023 -151292,-12022 -252489,0 -39072,4004 -69127,35067 -69127,74139 v 458887 h 110205 V 383602 c 0,-11023 8018,-19041 18042,-20040 68128,-7019 114218,-2007 181347,5003 z"
   class="fil0"
   id="3" />
  <path
   style="fill:#003399;fill-rule:nonzero"
   d="m 3558258,260358 c -112211,-12022 -205391,-13021 -317611,0 -37074,4013 -66130,33069 -69135,70134 -11014,140277 -11014,251490 0,391758 3006,37074 32062,66130 69135,70134 112220,13021 205399,12022 317611,0 l -12022,-109206 c -88167,10015 -163314,12022 -250482,4004 -9017,-999 -17034,-8018 -18033,-18033 -7019,-99190 -7019,-186359 0,-285549 999,-10024 9017,-17034 18033,-18042 87168,-8009 162315,-6011 250482,4013 l 12022,-109215 z"
   class="fil0"
   id="4" />
  <path
   style="fill:#003399;fill-rule:nonzero"
   d="m 4057224,683179 c -94187,10015 -181355,12022 -274535,4004 -10015,-999 -17034,-8018 -18033,-18033 -2007,-19041 -3006,-62125 -4004,-78152 88167,7010 169325,4004 257492,-6011 36075,-4013 64123,-31063 69135,-66130 14029,-83155 14029,-109206 0,-192370 -5012,-36066 -31063,-62117 -67129,-66130 -105201,-13021 -189364,-13021 -293567,0 -37074,4013 -65122,33069 -69135,70134 -11014,139270 -11014,251490 0,391758 4013,37074 32062,66130 69135,70134 117223,13021 226438,13021 342662,0 L 4057223,683177 Z M 3764656,383601 c 999,-10024 8018,-18042 18033,-19041 64123,-6011 119230,-6011 184361,0 9017,999 17025,9017 18033,18033 4004,37074 4004,42086 0,79151 -1008,10024 -9017,17034 -18033,18042 -72141,7010 -136264,7010 -209404,0 999,-36075 3006,-49096 7010,-96185 z"
   class="fil0"
   id="5" />
  <path
   style="fill:#000000;fill-rule:nonzero"
   d="M 4308705,792385 V 383602 c 0,-10024 8018,-19041 18042,-20040 54099,-5012 105201,-5012 159300,0 10024,999 18042,10015 18042,20040 v 408783 h 110205 V 383602 c 0,-10024 8018,-19041 18042,-20040 54099,-5012 105201,-5012 159300,0 10024,999 18033,10015 18033,20040 v 408783 h 110213 V 334506 c 0,-39080 -30055,-69135 -68128,-74147 -98191,-14020 -181347,-14020 -279538,0 -5012,1008 -9017,2007 -13030,3006 -4004,-999 -8009,-1998 -13021,-3006 -98191,-14020 -181347,-14020 -279538,0 -38073,5012 -68128,35067 -68128,74147 v 457879 h 110205 z"
   class="fil1"
   id="6" />
  <path
   style="fill:#000000;fill-rule:nonzero"
   d="m 5060159,368565 c 93179,-10015 179349,-12022 271520,-5003 10024,999 18033,10015 18033,20040 v 78143 c -86161,-7010 -164313,-4004 -250482,6020 -35067,4004 -63116,31054 -69127,66121 -13030,80158 -13030,112220 0,192370 6011,36075 32062,62125 68128,66130 104202,13021 188365,13021 293567,0 38073,-5012 68128,-35067 68128,-74139 V 334507 c 0,-40079 -30055,-71142 -69135,-75146 -117223,-13021 -225430,-13021 -342654,0 l 12022,109206 z m 289554,299578 c 0,11023 -8009,19041 -18033,20040 -63116,6011 -118222,6011 -181347,-999 -10024,-999 -16035,-8018 -18033,-17034 -4013,-30055 -4013,-50095 0,-80150 999,-9025 9017,-16035 18033,-17034 68128,-6011 130253,-7019 199380,-1008 z"
   class="fil1"
   id="7" />
  <path
   style="fill:#000000;fill-rule:nonzero"
   d="m 5971913,260358 c -117223,-13021 -225430,-13021 -342662,0 -35067,4013 -60110,29056 -68128,63124 -14029,66130 -14029,93179 0,160308 7010,32062 30055,54108 61118,62117 l 250482,60119 c 8018,2007 14029,9017 15028,17034 3006,17034 4013,29056 999,47089 -999,9017 -8009,16035 -18033,17034 -95177,8018 -183353,7010 -279538,-4004 l -12022,109206 c 117223,13021 225439,13021 342662,0 35067,-4004 60110,-29056 68128,-63124 14029,-67129 14029,-94178 0,-160308 -7010,-32062 -29056,-54099 -61118,-62117 l -250482,-61118 c -8018,-2007 -14029,-8018 -15028,-16035 -3006,-18033 -4004,-30055 -999,-47089 999,-9017 8009,-16026 18033,-17034 95186,-9017 183353,-7010 279538,4013 z"
   class="fil1"
   id="8" />
  <path
   style="fill:#000000;fill-rule:nonzero"
   d="m 6475882,683179 c -67129,7010 -113219,12022 -181347,5003 -10024,-999 -18033,-9017 -18033,-20040 V 369572 h 159300 V 259359 H 6276502 V 89035 h -110213 v 170324 h -125241 v 110213 h 125241 v 348673 c 0,39072 30055,70134 69127,74139 101197,12022 151292,11023 252489,0 l -12022,-109206 z"
   class="fil1"
   id="9" />
  <path
   style="fill:#000000;fill-rule:nonzero"
   d="m 6946791,683179 c -94187,10015 -181355,12022 -274535,4004 -10015,-999 -17034,-8018 -18033,-18033 -2007,-19041 -3006,-62125 -4004,-78152 88167,7010 169325,4004 257492,-6011 36075,-4013 64123,-31063 69135,-66130 14029,-83155 14029,-109206 0,-192370 -5012,-36066 -31063,-62117 -67129,-66130 -105201,-13021 -189364,-13021 -293567,0 -37074,4013 -65122,33069 -69135,70134 -11014,139270 -11014,251490 0,391758 4013,37074 32062,66130 69135,70134 117223,13021 226438,13021 342662,0 L 6946790,683177 Z M 6654223,383601 c 999,-10024 8018,-18042 18033,-19041 64123,-6011 119230,-6011 184361,0 9017,999 17025,9017 18033,18033 4004,37074 4004,42086 0,79151 -1008,10024 -9017,17034 -18033,18042 -72141,7010 -136264,7010 -209404,0 999,-36075 3006,-49096 7010,-96185 z"
   class="fil1"
   id="10" />
  <path
   style="fill:#000000;fill-rule:nonzero"
   d="m 7409682,259359 c -101197,-11023 -151292,-12022 -252489,0 -39072,4004 -69127,35067 -69127,74139 v 458887 h 110205 V 383602 c 0,-11023 8018,-19041 18042,-20040 68128,-7019 114218,-2007 181347,5003 z"
   class="fil1"
   id="11" />
  <path
   style="fill:#003399;fill-rule:nonzero"
   id="path20"
   d="m 855388,819408 20691,20682 c 32618,-36318 59163,-77144 78968,-120889 23358,-51606 37430,-107303 41130,-164478 374,-5863 634,-10928 773,-15236 104,-3275 156,-8408 156,-15401 V 51049 H 524086 C 393459,51049 275194,103993 189598,189589 109605,269582 58138,378093 51736,498565 h 59832 c 6332,-103959 51102,-197538 120272,-266708 74790,-74790 178133,-121054 292246,-121054 44535,0 88497,7210 130288,21039 41756,13820 81418,34355 117380,61013 l 23714,17590 -20926,20900 -79776,79707 -14663,14654 -17347,-11466 c -20509,-13551 -42841,-23966 -66208,-30985 -23323,-7001 -47732,-10624 -72462,-10624 -69439,0 -132312,28144 -177811,73644 -45491,45491 -73644,108363 -73644,177811 0,69439 28153,132312 73652,177811 45491,45500 108363,73652 177803,73652 69439,0 132303,-28153 177794,-73652 45500,-45500 73652,-108372 73652,-177811 0,-24730 -3622,-49148 -10632,-72480 -7019,-23358 -17434,-45699 -30985,-66208 l -11501,-17408 14689,-14697 79481,-79481 20839,-20821 17651,23610 c 26589,35571 47141,75164 61092,117145 13959,41964 21204,85961 21204,130340 0,114122 -46264,217447 -121045,292238 -74790,74781 -178124,121045 -292238,121045 -54655,0 -108328,-10910 -158076,-31514 -49712,-20587 -95403,-50876 -134153,-89635 l -17937,-17946 17937,-17946 39158,-39176 36092,35892 -20587,20596 c 29629,25747 63055,46342 98834,61161 43450,17998 90547,27519 138731,27519 100033,0 190598,-40540 256145,-106087 65548,-65548 106096,-156113 106096,-256145 0,-39323 -6298,-77935 -18415,-114383 -9051,-27223 -21429,-53474 -36917,-78126 l -43632,43632 c 11101,19649 19944,40401 26389,61839 8452,28144 12821,57461 12821,87038 0,83520 -33860,159161 -88602,213903 -54733,54733 -130366,88602 -213886,88602 -83529,0 -159161,-33868 -213895,-88602 -54742,-54742 -88602,-130375 -88602,-213903 0,-83529 33860,-159170 88602,-213903 54733,-54733 130366,-88593 213895,-88593 29560,0 58877,4369 87021,12821 21464,6445 42242,15305 61900,26433 l 43858,-43823 c -24635,-15314 -50989,-27640 -78447,-36726 -36631,-12126 -75224,-18450 -114331,-18450 -100033,0 -190606,40557 -256154,106105 -65548,65539 -106105,156113 -106105,256137 v 25521 H 136306 25528 -1 V 524089 C -1,379373 58667,248338 153506,153508 248344,58670 379362,1 524087,1 h 498549 25521 v 25521 498566 c 0,3822 -122,9494 -365,16991 -200,6402 -460,12057 -773,16843 -4109,63437 -19683,125145 -45517,182224 -25816,57044 -61830,109501 -106843,154514 l -17990,17990 -18007,-17990 -39176,-39158 35901,-36092 z"
   class="fil0" />
 </g>
</svg>