<?xml version="1.0" encoding="UTF-8"?>
<!DOCTYPE svg PUBLIC "-//W3C//DTD SVG 1.1//EN" "http://www.w3.org/Graphics/SVG/1.1/DTD/svg11.dtd">
<!-- Creator: CorelDRAW 2017 -->
<svg xmlns="http://www.w3.org/2000/svg" xml:space="preserve" width="9.174mm" height="8.2044mm" version="1.1" style="shape-rendering:geometricPrecision; text-rendering:geometricPrecision; image-rendering:optimizeQuality; fill-rule:evenodd; clip-rule:evenodd"
viewBox="0 0 265917 237812"
 xmlns:xlink="http://www.w3.org/1999/xlink">
 <defs>
  <style type="text/css">
   <![CDATA[
    .fil0 {fill:white;fill-rule:nonzero}
   ]]>
  </style>
 </defs>
 <g id="Слой_x0020_1">
  <metadata id="CorelCorpID_0Corel-Layer"/>
  <path class="fil0" d="M217012 207884l5249 5249c8275,-9215 15009,-19574 20035,-30670 5925,-13093 9496,-27224 10435,-41728 96,-1490 159,-2774 197,-3867 23,-829 38,-2133 38,-3907l0 -120011 -120005 0c-33143,0 -63146,13432 -84862,35148 -20293,20293 -33351,47824 -34974,78387l15180 0c1606,-26374 12963,-50114 30514,-67665 18974,-18971 45192,-30711 74143,-30711 11299,0 22453,1829 33053,5336 10594,3507 20658,8719 29780,15481l6015 4461 -5307 5302 -20238 20224 -3722 3716 -4400 -2907c-5203,-3438 -10870,-6078 -16797,-7858 -5919,-1780 -12110,-2699 -18383,-2699 -17618,0 -33569,7142 -45111,18684 -11542,11542 -18684,27493 -18684,45111 0,17618 7142,33569 18684,45111 11542,11542 27493,18684 45111,18684 17615,0 33566,-7142 45105,-18684 11545,-11542 18684,-27493 18684,-45111 0,-6275 -916,-12470 -2696,-18386 -1780,-5928 -4423,-11594 -7861,-16800l-2919 -4415 3728 -3730 20166 -20163 5284 -5284 4478 5991c6748,9023 11960,19070 15502,29719 3539,10647 5380,21809 5380,33067 0,28954 -11739,55166 -30711,74140 -18974,18974 -45192,30711 -74140,30711 -13867,0 -27484,-2768 -40105,-7994 -12612,-5223 -24203,-12907 -34035,-22742l-4551 -4551 4551 -4557 9936 -9936 9154 9107 -5223 5223c7519,6533 15997,11757 25076,15516 11023,4565 22971,6983 35198,6983 25377,0 48354,-10287 64984,-26916 16629,-16629 26916,-39606 26916,-64984 0,-9977 -1597,-19771 -4673,-29018 -2296,-6907 -5435,-13565 -9365,-19821l-11070 11070c2817,4983 5061,10249 6696,15687 2145,7139 3252,14580 3252,22082 0,21189 -8591,40380 -22479,54268 -13884,13887 -33073,22479 -54262,22479 -21192,0 -40380,-8591 -54265,-22479 -13890,-13887 -22482,-33076 -22482,-54268 0,-21192 8591,-40380 22479,-54268 13887,-13887 33076,-22476 54268,-22476 7499,0 14936,1107 22076,3252 5446,1635 10716,3884 15705,6704l11128 -11116c-6252,-3887 -12936,-7012 -19902,-9319 -9293,-3075 -19084,-4678 -29006,-4678 -25380,0 -48357,10287 -64987,26916 -16632,16629 -26919,39606 -26919,64984l0 6475 -6475 0 -28105 0 -6475 0 0 -6475c0,-36717 14884,-69958 38943,-94016 24061,-24061 57302,-38946 94019,-38946l126480 0 6475 0 0 6475 0 126486c0,968 -32,2409 -93,4310 -49,1623 -116,3058 -197,4275 -1041,16093 -4991,31748 -11545,46227 -6551,14473 -15687,27783 -27108,39201l-4562 4565 -4568 -4565 -9939 -9933 9107 -9157z"/>
 </g>
</svg>
