<?xml version="1.0" encoding="UTF-8"?>
<!DOCTYPE svg PUBLIC "-//W3C//DTD SVG 1.1//EN" "http://www.w3.org/Graphics/SVG/1.1/DTD/svg11.dtd">
<!-- Creator: CorelDRAW 2017 -->
<svg xmlns="http://www.w3.org/2000/svg" xml:space="preserve" width="78.9118mm" height="9.9928mm" version="1.1" style="shape-rendering:geometricPrecision; text-rendering:geometricPrecision; image-rendering:optimizeQuality; fill-rule:evenodd; clip-rule:evenodd"
viewBox="0 0 3452116 437150"
 xmlns:xlink="http://www.w3.org/1999/xlink">
 <defs>
  <style type="text/css">
   <![CDATA[
    .fil1 {fill:black;fill-rule:nonzero}
    .fil0 {fill:#003399;fill-rule:nonzero}
   ]]>
  </style>
 </defs>
 <g id="Слой_x0020_1">
  <metadata id="CorelCorpID_0Corel-Layer"/>
  <path class="fil0" d="M734486 131436c-54670,-6076 -105132,-6076 -159802,0 -16357,1868 -28037,13548 -31773,29437 -6544,30841 -6544,43453 0,74763 3268,14953 14016,25233 28501,28969l116816 28037c3740,936 6540,4204 7008,7944 1404,7944 1868,13548 468,21961 -468,4204 -3736,7476 -8412,7944 -44390,3736 -85507,3268 -130365,-1872l-5608 50934c54670,6076 105136,6076 159806,0 16352,-1868 28037,-13553 31773,-29437 6540,-31309 6540,-43922 0,-74763 -3272,-14953 -13548,-25233 -28501,-28969l-116816 -28505c-3740,-936 -6544,-3736 -7013,-7476 -1400,-8412 -1868,-14016 -464,-21961 464,-4204 3736,-7476 8408,-7944 44390,-4204 85511,-3272 130369,1868l5604 -50930z"/>
  <path id="1" class="fil0" d="M821402 130968c-17289,1868 -30373,15421 -31773,32709 -5608,65419 -5608,117748 0,183167 1400,17289 14484,30841 31773,32709 49530,6076 87379,6076 136909,0 17289,-1868 30373,-15421 31773,-32709 5608,-65419 5608,-117748 0,-183167 -1400,-17289 -14484,-30841 -31773,-32709 -49062,-6076 -87847,-6076 -136909,0zm17757 57474c468,-4672 3736,-8412 8412,-8881 29437,-2800 55134,-2800 84575,0 4672,468 7940,4208 8408,8881 3272,46258 3272,87379 0,133637 -468,4672 -3736,8412 -8408,8881 -28973,2336 -55138,2336 -84575,0 -4677,-468 -7944,-4208 -8412,-8881 -3272,-46258 -3272,-87379 0,-133637z"/>
  <path id="2" class="fil0" d="M1041018 130968l0 213540c0,18225 14016,32709 32241,34577 50930,6076 85507,6076 136441,0 18225,-1868 32241,-16352 32241,-34577l0 -213540 -51398 0 0 190175c0,5140 -3740,8881 -8412,9349 -28969,2804 -52334,2804 -81303,0 -4672,-468 -8412,-4208 -8412,-9349l0 -190175 -51398 0z"/>
  <path id="3" class="fil0" d="M1443333 130968c-47194,-5140 -70554,-5608 -117748,0 -18225,1868 -32241,16352 -32241,34577l0 214008 51398 0 0 -190643c0,-5140 3740,-8881 8412,-9349 31773,-3268 53266,-932 84575,2340l5604 -50934z"/>
  <path id="4" class="fil0" d="M1655941 131436c-52334,-5608 -95787,-6076 -148121,0 -17289,1868 -30841,15421 -32241,32709 -5140,65414 -5140,117280 0,182699 1400,17289 14953,30841 32241,32709 52334,6076 95787,5608 148121,0l-5604 -50934c-41122,4677 -76167,5608 -116816,1872 -4208,-468 -7944,-3740 -8412,-8412 -3272,-46258 -3272,-86911 0,-133169 468,-4672 4204,-7944 8412,-8412 40649,-3736 75695,-2804 116816,1868l5604 -50930z"/>
  <path id="5" class="fil0" d="M1888642 328619c-43922,4677 -84575,5608 -128033,1872 -4672,-468 -7940,-3740 -8408,-8412 -936,-8876 -1404,-28969 -1868,-36445 41117,3268 78967,1868 120084,-2804 16821,-1868 29905,-14484 32241,-30841 6544,-38781 6544,-50930 0,-89715 -2336,-16821 -14484,-28969 -31305,-30837 -49062,-6076 -88315,-6076 -136909,0 -17289,1868 -30373,15421 -32241,32709 -5140,64950 -5140,117280 0,182699 1868,17289 14953,30841 32241,32709 54670,6076 105600,6076 159806,0l-5608 -50934zm-136441 -139709c468,-4672 3736,-8412 8408,-8881 29905,-2804 55606,-2804 85979,0 4204,468 7944,4208 8408,8412 1872,17289 1872,19625 0,36913 -464,4672 -4204,7944 -8408,8412 -33645,3268 -63551,3268 -97660,0 468,-16825 1404,-22897 3272,-44858z"/>
  <path id="6" class="fil1" d="M2005926 379554l0 -190643c0,-4672 3740,-8881 8412,-9349 25233,-2336 49062,-2336 74295,0 4672,468 8408,4677 8408,9349l0 190643 51402 0 0 -190643c0,-4672 3736,-8881 8408,-9349 25233,-2336 49066,-2336 74295,0 4677,468 8412,4677 8412,9349l0 190643 51398 0 0 -213540c0,-18225 -14016,-32241 -31773,-34577 -45789,-6544 -84575,-6544 -130365,0 -2336,468 -4208,932 -6076,1400 -1868,-468 -3736,-932 -6076,-1400 -45789,-6544 -84571,-6544 -130365,0 -17757,2336 -31773,16352 -31773,34577l0 213540 51398 0z"/>
  <path id="7" class="fil1" d="M2356375 181902c43458,-4677 83639,-5608 126629,-2340 4672,468 8412,4677 8412,9349l0 36445c-40186,-3272 -76631,-1868 -116816,2804 -16357,1868 -29437,14484 -32241,30841 -6076,37377 -6076,52330 0,89711 2804,16825 14953,28973 31773,30841 48594,6076 87847,6076 136909,0 17757,-2336 31773,-16352 31773,-34577l0 -178963c0,-18693 -14016,-33177 -32241,-35045 -54670,-6076 -105136,-6076 -159806,0l5608 50934zm135041 139709c0,5140 -3740,8881 -8412,9349 -29437,2800 -55138,2800 -84575,-468 -4672,-468 -7476,-3740 -8408,-7944 -1872,-14016 -1872,-23365 0,-37381 464,-4204 4204,-7476 8408,-7944 31773,-2804 60746,-3272 92988,-468l0 44858z"/>
  <path id="8" class="fil1" d="M2781587 131436c-54670,-6076 -105132,-6076 -159802,0 -16357,1868 -28037,13548 -31773,29437 -6544,30841 -6544,43453 0,74763 3268,14953 14016,25233 28501,28969l116816 28037c3740,936 6540,4204 7008,7944 1404,7944 1868,13548 468,21961 -468,4204 -3736,7476 -8412,7944 -44390,3736 -85507,3268 -130365,-1872l-5608 50934c54670,6076 105136,6076 159806,0 16352,-1868 28037,-13553 31773,-29437 6540,-31309 6540,-43922 0,-74763 -3272,-14953 -13548,-25233 -28501,-28969l-116816 -28505c-3740,-936 -6544,-3736 -7013,-7476 -1400,-8412 -1868,-14016 -464,-21961 464,-4204 3736,-7476 8408,-7944 44390,-4204 85511,-3272 130369,1868l5604 -50930z"/>
  <path id="9" class="fil1" d="M3016624 328619c-31309,3272 -52802,5608 -84575,2340 -4672,-468 -8412,-4208 -8412,-9349l0 -139245 74295 0 0 -51398 -74295 0 0 -79435 -51398 0 0 79435 -58410 0 0 51398 58410 0 0 162610c0,18225 14016,32709 32241,34577 47194,5608 70559,5140 117752,0l-5608 -50934z"/>
  <path id="10" class="fil1" d="M3236240 328619c-43922,4677 -84575,5608 -128033,1872 -4672,-468 -7940,-3740 -8408,-8412 -936,-8876 -1404,-28969 -1868,-36445 41117,3268 78967,1868 120084,-2804 16821,-1868 29905,-14484 32241,-30841 6544,-38781 6544,-50930 0,-89715 -2336,-16821 -14484,-28969 -31305,-30837 -49062,-6076 -88315,-6076 -136909,0 -17289,1868 -30373,15421 -32241,32709 -5140,64950 -5140,117280 0,182699 1868,17289 14953,30841 32241,32709 54670,6076 105600,6076 159806,0l-5608 -50934zm-136441 -139709c468,-4672 3736,-8412 8408,-8881 29905,-2804 55606,-2804 85979,0 4204,468 7944,4208 8408,8412 1872,17289 1872,19625 0,36913 -464,4672 -4204,7944 -8408,8412 -33645,3268 -63551,3268 -97660,0 468,-16825 1404,-22897 3272,-44858z"/>
  <path id="11" class="fil1" d="M3452116 130968c-47194,-5140 -70554,-5608 -117748,0 -18225,1868 -32241,16352 -32241,34577l0 214008 51398 0 0 -190643c0,-5140 3740,-8881 8412,-9349 31773,-3268 53266,-932 84575,2340l5604 -50934z"/>
  <path class="fil0" d="M398916 382139l9650 9646c15215,-16939 27591,-35977 36826,-56376 10893,-24069 17459,-50046 19183,-76705 175,-2739 297,-5096 363,-7109 48,-1527 74,-3924 74,-7183l0 -220605 -220601 0c-60921,0 -116073,24691 -155991,64609 -37307,37303 -61311,87909 -64294,144097l27902 0c2957,-48484 23833,-92126 56096,-124384 34875,-34879 83070,-56455 136288,-56455 20771,0 41275,3364 60760,9812 19476,6444 37972,16020 54740,28457l11063 8198 -9760 9747 -37206 37176 -6838 6833 -8089 -5346c-9567,-6321 -19979,-11177 -30876,-14449 -10880,-3268 -22263,-4956 -33794,-4956 -32386,0 -61704,13124 -82922,34345 -21217,21217 -34345,50536 -34345,82922 0,32386 13128,61709 34345,82926 21217,21217 50540,34345 82922,34345 32381,0 61700,-13128 82917,-34345 21221,-21221 34345,-50540 34345,-82926 0,-11536 -1689,-22919 -4956,-33799 -3272,-10897 -8128,-21313 -14449,-30881l-5363 -8119 6851 -6851 37066 -37066 9716 -9712 8233 11011c12398,16589 21983,35054 28492,54631 6509,19572 9887,40094 9887,60786 0,53222 -21576,101409 -56451,136288 -34875,34875 -83070,56451 -136288,56451 -25491,0 -50518,-5088 -73722,-14694 -23181,-9602 -44490,-23728 -62562,-41804l-8364 -8369 8364 -8373 18260 -18264 16834 16737 -9602 9602c13820,12013 29406,21615 46096,28523 20263,8395 42224,12840 64697,12840 46651,0 88889,-18912 119459,-49477 30566,-30570 49477,-72807 49477,-119459 0,-18339 -2935,-36345 -8592,-53344 -4217,-12695 -9987,-24936 -17214,-36432l-20351 20347c5184,9165 9305,18842 12310,28842 3942,13124 5980,26799 5980,40588 0,38952 -15792,74229 -41323,99755 -25522,25526 -60795,41323 -99746,41323 -38956,0 -74225,-15797 -99751,-41323 -25530,-25526 -41323,-60799 -41323,-99755 0,-38952 15792,-74229 41319,-99755 25526,-25526 60799,-41319 99755,-41319 13785,0 27460,2039 40584,5980 10009,3005 19699,7139 28868,12328l20451 -20434c-11488,-7144 -23776,-12892 -36585,-17131 -17083,-5652 -35080,-8601 -53318,-8601 -46651,0 -88893,18912 -119459,49477 -30570,30570 -49482,72807 -49482,119454l0 11903 -11903 0 -51665 0 -11903 0 0 -11903c0,-67492 27359,-128597 71587,-172825 44228,-44228 105333,-71587 172825,-71587l232504 0 11899 0 0 11903 0 232508c0,1785 -57,4427 -166,7922 -96,2988 -219,5626 -363,7857 -1912,29586 -9178,58362 -21226,84982 -12039,26602 -28838,51065 -49827,72059l-8391 8391 -8395 -8391 -18273 -18264 16742 -16829z"/>
 </g>
</svg>
